<svg xmlns="http://www.w3.org/2000/svg" width="17.286" height="17.286" viewBox="0 0 17.286 17.286">
  <defs>
    <style>
      .cls-1 {
        opacity: 0.98;
      }

      .cls-2 {
        fill: #e06571;
      }
    </style>
  </defs>
  <g id="account" class="cls-1">
    <path id="Path_185" data-name="Path 185" class="cls-2" d="M17.286,8.643a8.643,8.643,0,1,0-8.643,8.643A8.638,8.638,0,0,0,17.286,8.643ZM8.643,1.013a7.631,7.631,0,0,1,6.323,11.9,8.64,8.64,0,0,0-12.647,0,7.631,7.631,0,0,1,6.323-11.9ZM2.951,13.724a7.628,7.628,0,0,1,11.383,0A7.623,7.623,0,0,1,2.951,13.724Zm0,0"/>
    <path id="Path_186" data-name="Path 186" class="cls-2" d="M169.039,68.09a3.042,3.042,0,0,0,3.038-3.039V64.039a3.039,3.039,0,1,0-6.077,0v1.013A3.042,3.042,0,0,0,169.039,68.09Zm-2.026-4.051a2.026,2.026,0,0,1,4.051,0v1.013a2.026,2.026,0,0,1-4.051,0Zm0,0" transform="translate(-160.396 -58.941)"/>
  </g>
</svg>
