<svg xmlns="http://www.w3.org/2000/svg" width="26.277" height="24.94" viewBox="0 0 26.277 24.94">
  <g id="application" transform="translate(0.5)">
    <path id="Path_131" data-name="Path 131" d="M25.277,3.135V21.8a2.635,2.635,0,0,1-2.635,2.635H2.634A2.635,2.635,0,0,1,0,21.8V3.135A2.635,2.635,0,0,1,2.634.5H22.642a2.635,2.635,0,0,1,2.635,2.635Zm0,0" transform="translate(0 0)" fill="none" stroke="#ff9494" stroke-width="1"/>
    <path id="Path_132" data-name="Path 132" d="M25.277,3.135V5.66H0V3.135A2.635,2.635,0,0,1,2.635.5H22.642a2.635,2.635,0,0,1,2.635,2.635Zm0,0" transform="translate(0)" fill="#ff9494"/>
    <path id="Path_133" data-name="Path 133" d="M39.361,34.878a.929.929,0,1,1-.929-.929A.929.929,0,0,1,39.361,34.878Zm0,0" transform="translate(-35.653 -31.798)" fill="#e1ebf0"/>
    <path id="Path_134" data-name="Path 134" d="M110.978,34.878a.929.929,0,1,1-.929-.929A.929.929,0,0,1,110.978,34.878Zm0,0" transform="translate(-103.734 -31.798)" fill="#95dae8"/>
    <path id="Path_135" data-name="Path 135" d="M182.592,34.878a.929.929,0,1,1-.929-.929A.929.929,0,0,1,182.592,34.878Zm0,0" transform="translate(-171.812 -31.798)" fill="#f2839d"/>
    <path id="Path_136" data-name="Path 136" d="M124.2,148.774a5.414,5.414,0,0,0-.108-1.072l1.873-1.481-1.349-2.338-2.222.882a5.352,5.352,0,0,0-1.855-1.072l-.348-2.364h-2.7l-.347,2.364a5.349,5.349,0,0,0-1.856,1.072l-2.221-.882-1.35,2.338,1.873,1.481a5.4,5.4,0,0,0,0,2.145l-1.873,1.482,1.35,2.338,2.221-.882a5.343,5.343,0,0,0,1.856,1.072l.347,2.364h2.7l.348-2.364a5.346,5.346,0,0,0,1.855-1.072l2.222.882,1.349-2.338-1.873-1.482A5.414,5.414,0,0,0,124.2,148.774Zm-5.358,2.591a2.59,2.59,0,1,1,2.59-2.591A2.59,2.59,0,0,1,118.838,151.365Zm0,0" transform="translate(-106.2 -133.875)" fill="#f2839d"/>
    <path id="Path_137" data-name="Path 137" d="M134.83,168.461l-.322-2.2-.391-.131a4.649,4.649,0,0,1-1.623-.938l-.309-.274-2.067.821-.77-1.334,1.742-1.378-.082-.4a4.738,4.738,0,0,1,0-1.878l.082-.4-1.742-1.378.77-1.334,2.067.821.309-.274a4.646,4.646,0,0,1,1.623-.938l.391-.131.322-2.2h1.54l.323,2.2.391.131a4.655,4.655,0,0,1,1.622.938l.309.274,2.068-.821.77,1.334-1.741,1.377.081.4a4.725,4.725,0,0,1,0,1.881l-.081.4,1.741,1.377-.77,1.334-2.068-.821-.309.274a4.654,4.654,0,0,1-1.622.938l-.391.131-.323,2.2Zm.77-10.036a3.261,3.261,0,1,0,3.261,3.26A3.265,3.265,0,0,0,135.6,158.425Zm0,0" transform="translate(-122.962 -146.787)" fill="none"/>
  </g>
</svg>
