<svg id="key" xmlns="http://www.w3.org/2000/svg" width="17.29" height="17.29" viewBox="0 0 17.29 17.29">
  <defs>
    <style>
      .cls-1 {
        fill: #e06571;
      }
    </style>
  </defs>
  <g id="Group_53" data-name="Group 53">
    <g id="Group_52" data-name="Group 52">
      <path id="Path_187" data-name="Path 187" class="cls-1" d="M11.527,0A5.77,5.77,0,0,0,5.763,5.763,5.684,5.684,0,0,0,5.886,6.92l-.644.322a.36.36,0,0,0-.094.577l.466.466-.36.36H4.683a.36.36,0,0,0-.36.36v.571l-.509.509H3.242a.36.36,0,0,0-.36.36v.571l-.509.509H1.8a.36.36,0,0,0-.36.36v.571L.106,13.793A.36.36,0,0,0,0,14.048V16.93a.36.36,0,0,0,.36.36H3.242a.36.36,0,0,0,.255-.106l5.509-5.509.466.466a.36.36,0,0,0,.577-.094l.322-.644A5.761,5.761,0,1,0,11.527,0ZM10.264,10.64a.362.362,0,0,0-.412.188l-.225.451-.367-.367a.36.36,0,0,0-.509,0L3.093,16.57H.72V14.2l1.335-1.335a.36.36,0,0,0,.106-.255v-.36h.36a.36.36,0,0,0,.255-.106l.72-.72a.36.36,0,0,0,.106-.255v-.36h.36a.36.36,0,0,0,.255-.106l.72-.72a.36.36,0,0,0,.106-.255v-.36H5.4a.36.36,0,0,0,.255-.106l.72-.72a.36.36,0,0,0,0-.509l-.367-.367.451-.225a.36.36,0,0,0,.188-.412,5.041,5.041,0,1,1,9.92-1.262A5.025,5.025,0,0,1,10.264,10.64Z"/>
      <path id="Path_188" data-name="Path 188" class="cls-1" d="M342.782,64a1.449,1.449,0,1,0,1.449,1.449A1.45,1.45,0,0,0,342.782,64Zm0,2.318a.869.869,0,1,1,.869-.869A.87.87,0,0,1,342.782,66.318Z" transform="translate(-328.679 -62.262)"/>
      <path id="Path_189" data-name="Path 189" class="cls-1" d="M68.141,277.418l-4.056,4.056a.29.29,0,1,0,.41.41l4.056-4.056a.29.29,0,0,0-.41-.41Z" transform="translate(-62.262 -266.417)"/>
    </g>
  </g>
</svg>
