<?xml version="1.0"?>
<svg xmlns="http://www.w3.org/2000/svg" xmlns:xlink="http://www.w3.org/1999/xlink" version="1.1" id="Capa_1" x="0px" y="0px" viewBox="0 0 496.941 496.941" style="enable-background:new 0 0 496.941 496.941;" xml:space="preserve" width="512px" height="512px" class=""><g><g>
	<g>
		<g>
			<path d="M291.388,481.882H27.106c-6.776,0-12.047-5.271-12.047-12.047V97.129c0-6.776,5.271-12.047,12.047-12.047h57.976v21.835     c0,4.518,3.012,7.529,7.529,7.529c192,0,188.235,3.012,188.235-7.529V85.082h57.977c6.776,0,12.047,5.271,12.047,12.047v186.729     c0,4.518,3.012,7.529,7.529,7.529s7.529-3.012,7.529-7.529V97.129c0-15.059-12.047-27.106-27.106-27.106h-57.977V51.953     c0-4.518-3.012-7.529-7.529-7.529h-24.847V38.4c0-21.082-17.318-38.4-38.4-38.4h-54.212c-21.082,0-38.4,17.318-38.4,38.4v5.271     H92.612c-4.518,0-7.529,3.012-7.529,7.529v18.071H27.106C12.047,69.271,0,81.318,0,96.376v372.706     c0,15.059,12.047,27.106,27.106,27.106h264.282c4.518,0,7.529-3.012,7.529-7.529S295.153,481.882,291.388,481.882z M132.518,38.4     c0-12.8,10.541-23.341,23.341-23.341h54.212c12.8,0,23.341,10.541,23.341,23.341v5.271H132.518V38.4z M100.141,59.482     c132.077,0,144.086,0,144.941,0c0.044,0,0.059,0,0.059,0c0.406,0,3.344,0,20.647,0c0,15.059,0,25.6,0,40.659H100.141     C100.141,85.835,100.141,75.294,100.141,59.482z" data-original="#000000" class="active-path" data-old_color="#000000" fill="#D25774"/>
			<path d="M320,149.835l-45.176,37.647l-13.553-20.329c-2.259-3.765-6.776-4.518-10.541-2.259     c-3.765,2.259-4.518,6.776-2.259,10.541l18.071,27.106c1.506,1.506,3.012,3.012,5.271,3.012c2.259,0,4.518,0,6.024-1.506     l51.2-42.918c3.765-3.012,4.518-7.529,1.506-10.541C327.529,147.576,323.012,146.824,320,149.835z" data-original="#000000" class="active-path" data-old_color="#000000" fill="#D25774"/>
			<path d="M259.012,327.529c2.259-2.259,3.012-6.024,0.753-9.035L211.576,243.2l-0.753-0.753c0,0,0-0.753-0.753-0.753     l-121.976-115.2c-5.271-5.271-12.8-7.529-20.329-7.529c-8.282,0-15.812,3.765-21.835,9.035     c-11.294,12.047-10.541,30.871,1.506,42.165l121.976,114.447c0,0,0.753,0,0.753,0.753l0.753,0.753l78.306,42.918     C252.988,330.541,256.753,329.788,259.012,327.529z M57.976,158.871c-6.023-5.271-6.023-15.059-0.753-20.329     c3.012-3.012,6.776-4.518,10.541-4.518s7.529,1.506,9.788,3.765l10.541,10.541l-19.576,21.082L57.976,158.871z M79.812,179.2     l19.576-21.082l94.871,88.847L174.682,268.8L79.812,179.2z M187.482,277.082l16.565-18.071l27.106,42.165L187.482,277.082z" data-original="#000000" class="active-path" data-old_color="#000000" fill="#D25774"/>
			<path d="M296.659,427.671H54.965c-4.518,0-7.529,3.012-7.529,7.529s3.012,7.529,7.529,7.529h241.694     c4.518,0,7.529-3.012,7.529-7.529S300.424,427.671,296.659,427.671z" data-original="#000000" class="active-path" data-old_color="#000000" fill="#D25774"/>
			<path d="M296.659,374.212H54.965c-4.518,0-7.529,3.012-7.529,7.529s3.012,7.529,7.529,7.529h241.694     c4.518,0,7.529-3.012,7.529-7.529S300.424,374.212,296.659,374.212z" data-original="#000000" class="active-path" data-old_color="#000000" fill="#D25774"/>
			<path d="M54.965,318.494c-4.518,0-7.529,3.012-7.529,7.529s3.012,7.529,7.529,7.529h112.941c4.518,0,7.529-3.012,7.529-7.529     s-3.012-7.529-7.529-7.529H54.965z" data-original="#000000" class="active-path" data-old_color="#000000" fill="#D25774"/>
			<path d="M324.518,223.624v-33.882c0-4.518-3.012-7.529-7.529-7.529s-7.529,3.012-7.529,7.529v26.353h-71.529v-72.282h79.059     c4.518,0,7.529-3.012,7.529-7.529s-3.012-7.529-7.529-7.529H230.4c-4.518,0-7.529,3.012-7.529,7.529v87.341     c0,4.518,3.012,7.529,7.529,7.529h86.588C321.506,231.153,324.518,227.388,324.518,223.624z" data-original="#000000" class="active-path" data-old_color="#000000" fill="#D25774"/>
			<path d="M406.588,399.812c29.365,0,53.459-24.094,53.459-53.459c0-29.365-24.094-52.706-53.459-52.706     c-29.365,0-52.706,23.341-52.706,52.706C353.882,375.718,377.224,399.812,406.588,399.812z M406.588,308.706     c21.082,0,38.4,17.318,38.4,38.4c0,21.082-17.318,38.4-38.4,38.4c-21.082,0-37.647-18.071-37.647-39.153     C368.941,325.271,385.506,308.706,406.588,308.706z" data-original="#000000" class="active-path" data-old_color="#000000" fill="#D25774"/>
			<path d="M440.471,401.318h-66.259c-31.624,0-56.471,25.6-56.471,56.471v31.624c0,4.518,3.012,7.529,7.529,7.529h164.141     c4.518,0,7.529-3.012,7.529-7.529v-31.624C496.941,426.165,471.341,401.318,440.471,401.318z M332.047,481.882v-24.094     c0-23.341,18.823-41.412,41.412-41.412h66.259c23.341,0,41.412,18.824,41.412,41.412v24.094H332.047z" data-original="#000000" class="active-path" data-old_color="#000000" fill="#D25774"/>
		</g>
	</g>
</g></g> </svg>
