<svg xmlns="http://www.w3.org/2000/svg" width="231.642" height="107" viewBox="0 0 231.642 107">
  <defs>
    <style>
      .cls-1 {
        fill: #4a5665;
      }

      .cls-2 {
        fill: #747c97;
        font-size: 13px;
        font-family: Raleway-Regular, Raleway;
        letter-spacing: 0.192em;
      }

      .cls-3 {
        fill: #c43333;
      }

      .cls-4 {
        opacity: 0.87;
      }

      .cls-5 {
        fill: #800709;
      }
    </style>
  </defs>
  <g id="logo" transform="translate(-41.358 53.003)">
    <g id="TREE" transform="translate(41.358 15.051)">
      <g id="Group_2" data-name="Group 2">
        <g id="Group_1" data-name="Group 1" transform="translate(0 -3)">
          <path id="Path_2" data-name="Path 2" class="cls-1" d="M107.2,34.608a12.643,12.643,0,0,1-3.871-.61,9.523,9.523,0,0,1-3.278-1.764l1.186-1.842a11.469,11.469,0,0,0,2.872,1.637,8.4,8.4,0,0,0,3.028.548,5,5,0,0,0,2.825-.7,2.251,2.251,0,0,0,1.046-1.981,1.782,1.782,0,0,0-.281-1.014,2.357,2.357,0,0,0-.843-.735,6.932,6.932,0,0,0-1.436-.562q-.875-.249-2.029-.529-1.466-.375-2.528-.718a6.93,6.93,0,0,1-1.748-.812,2.835,2.835,0,0,1-1-1.125,3.771,3.771,0,0,1-.312-1.623,4.716,4.716,0,0,1,.484-2.169,4.592,4.592,0,0,1,1.327-1.592,5.98,5.98,0,0,1,1.982-.968,8.826,8.826,0,0,1,2.45-.328,9.781,9.781,0,0,1,3.434.593,8.483,8.483,0,0,1,2.684,1.561l-1.249,1.654a7.032,7.032,0,0,0-2.31-1.358,7.841,7.841,0,0,0-2.622-.453,4.78,4.78,0,0,0-2.544.64,2.216,2.216,0,0,0-1.046,2.045,1.949,1.949,0,0,0,.2.935,1.767,1.767,0,0,0,.671.657,5.24,5.24,0,0,0,1.2.5c.488.148,1.077.3,1.764.468q1.624.375,2.825.765a8.254,8.254,0,0,1,2,.919,3.55,3.55,0,0,1,1.186,1.25,3.625,3.625,0,0,1,.39,1.748,4.326,4.326,0,0,1-1.748,3.619A7.541,7.541,0,0,1,107.2,34.608Z" transform="translate(-100.05 -11.508)"/>
          <path id="Path_3" data-name="Path 3" class="cls-1" d="M129.137,36.129l-5.619-7.958L120.4,31.1v5.026H117.65V13.342H120.4V28.325l8.365-8.459h3.028L125.3,26.608l6.8,9.52Z" transform="translate(-92.678 -13.342)"/>
          <path id="Path_4" data-name="Path 4" class="cls-1" d="M142.073,36.405a7.988,7.988,0,0,1-5.946-2.53,8.255,8.255,0,0,1-1.67-2.684,8.8,8.8,0,0,1-.593-3.217,8.7,8.7,0,0,1,.609-3.245,8.491,8.491,0,0,1,1.686-2.684,8.047,8.047,0,0,1,2.591-1.842,7.964,7.964,0,0,1,3.324-.687,8.062,8.062,0,0,1,5.946,2.528,8.492,8.492,0,0,1,1.686,2.684,8.7,8.7,0,0,1,.609,3.245,8.834,8.834,0,0,1-.593,3.217,8.076,8.076,0,0,1-7.648,5.214Zm-5.4-8.4a6.544,6.544,0,0,0,.421,2.374,6.05,6.05,0,0,0,1.155,1.9,5.439,5.439,0,0,0,1.717,1.278,4.975,4.975,0,0,0,4.214,0,5.517,5.517,0,0,0,1.732-1.3,6.068,6.068,0,0,0,1.171-1.934,6.668,6.668,0,0,0,.421-2.389,6.561,6.561,0,0,0-.421-2.355,6.05,6.05,0,0,0-1.171-1.937,5.561,5.561,0,0,0-1.732-1.3,4.838,4.838,0,0,0-2.107-.468,4.715,4.715,0,0,0-2.107.484,5.584,5.584,0,0,0-1.717,1.311,6.219,6.219,0,0,0-1.155,1.935A6.671,6.671,0,0,0,136.673,28.007Zm1.717-11.393V13.43h2.31v3.184Zm5.057,0V13.43h2.31v3.184Z" transform="translate(-85.887 -13.305)"/>
          <path id="Path_5" data-name="Path 5" class="cls-1" d="M158.356,34.212l-6.43-16.294h2.841l5.152,13.892,5.18-13.892h2.623l-6.43,16.294Z" transform="translate(-78.322 -11.425)"/>
          <path id="Path_6" data-name="Path 6" class="cls-1" d="M177.319,36.442a7.155,7.155,0,0,1-3.121-.687,7.719,7.719,0,0,1-2.466-1.843,8.529,8.529,0,0,1-1.608-2.684,9.034,9.034,0,0,1-.576-3.217,9.712,9.712,0,0,1,.546-3.262,8.442,8.442,0,0,1,1.529-2.7,7.3,7.3,0,0,1,2.34-1.826,6.65,6.65,0,0,1,2.982-.671,6.186,6.186,0,0,1,3.512,1.03,8.136,8.136,0,0,1,2.452,2.5V13.342h2.747V32.757q0,.966.874,1v2.372q-.438.062-.7.094a4.629,4.629,0,0,1-.515.03,2.056,2.056,0,0,1-1.42-.546,1.655,1.655,0,0,1-.609-1.264V33.067a7.032,7.032,0,0,1-5.965,3.375Zm.655-2.374a4.588,4.588,0,0,0,1.545-.281,6,6,0,0,0,1.5-.78,5.636,5.636,0,0,0,1.216-1.171,3.505,3.505,0,0,0,.672-1.419V25.734a5.193,5.193,0,0,0-.844-1.483,6.657,6.657,0,0,0-1.264-1.217,6.146,6.146,0,0,0-1.5-.812,4.475,4.475,0,0,0-1.576-.3,4.67,4.67,0,0,0-2.2.515,5.405,5.405,0,0,0-1.686,1.372,6.231,6.231,0,0,0-1.077,1.968,7.028,7.028,0,0,0-.375,2.263,6.276,6.276,0,0,0,.437,2.327,6.088,6.088,0,0,0,1.186,1.92,5.7,5.7,0,0,0,1.764,1.3A5.055,5.055,0,0,0,177.974,34.068Z" transform="translate(-70.942 -13.342)"/>
          <path id="Path_7" data-name="Path 7" class="cls-1" d="M197.387,34.608a8.288,8.288,0,0,1-3.371-.673,7.984,7.984,0,0,1-2.622-1.826,8.3,8.3,0,0,1-1.7-2.7,8.817,8.817,0,0,1-.609-3.262,8.691,8.691,0,0,1,.609-3.245,8.159,8.159,0,0,1,7.726-5.183,7.922,7.922,0,0,1,7.568,5.166,8.742,8.742,0,0,1,.577,3.137c0,.23-.006.438-.016.623a3.663,3.663,0,0,1-.047.438H191.986a6.332,6.332,0,0,0,.562,2.218,5.717,5.717,0,0,0,1.216,1.715,5.648,5.648,0,0,0,1.7,1.125,5.093,5.093,0,0,0,2.013.4,5.337,5.337,0,0,0,1.467-.2,6.475,6.475,0,0,0,1.342-.546,4.663,4.663,0,0,0,1.107-.843,3.491,3.491,0,0,0,.735-1.125l2.372.657a6.008,6.008,0,0,1-1.108,1.654,7.34,7.34,0,0,1-1.623,1.294,8.305,8.305,0,0,1-2.045.858A8.725,8.725,0,0,1,197.387,34.608Zm5.587-9.552a5.894,5.894,0,0,0-.577-2.14,5.773,5.773,0,0,0-1.216-1.669,5.581,5.581,0,0,0-5.821-1.077,5.316,5.316,0,0,0-1.7,1.092,5.524,5.524,0,0,0-1.186,1.67,6.129,6.129,0,0,0-.546,2.123Z" transform="translate(-62.759 -11.508)"/>
          <path id="Path_8" data-name="Path 8" class="cls-1" d="M222.717,36.129h-2.748V27.014a6.534,6.534,0,0,0-.874-3.761,2.938,2.938,0,0,0-2.56-1.233,4.3,4.3,0,0,0-1.623.328,6.011,6.011,0,0,0-1.514.89,6.482,6.482,0,0,0-1.249,1.341,5.957,5.957,0,0,0-.827,1.718v9.833h-2.748V13.342h2.748v9.989a7.171,7.171,0,0,1,2.622-2.778,6.88,6.88,0,0,1,3.622-1,5.145,5.145,0,0,1,2.435.531,4.265,4.265,0,0,1,1.592,1.436,6.3,6.3,0,0,1,.857,2.168,13.122,13.122,0,0,1,.267,2.7v9.739Z" transform="translate(-54.596 -13.342)"/>
          <path id="Path_9" data-name="Path 9" class="cls-1" d="M234.808,34.608a8.288,8.288,0,0,1-3.371-.673,7.985,7.985,0,0,1-2.622-1.826,8.3,8.3,0,0,1-1.7-2.7,8.817,8.817,0,0,1-.609-3.262,8.691,8.691,0,0,1,.609-3.245,8.159,8.159,0,0,1,7.726-5.183,7.922,7.922,0,0,1,7.568,5.166,8.742,8.742,0,0,1,.577,3.137c0,.23-.006.438-.016.623a3.676,3.676,0,0,1-.047.438H229.406a6.333,6.333,0,0,0,.562,2.218,5.716,5.716,0,0,0,1.216,1.715,5.648,5.648,0,0,0,1.7,1.125,5.093,5.093,0,0,0,2.013.4,5.337,5.337,0,0,0,1.467-.2,6.477,6.477,0,0,0,1.342-.546,4.662,4.662,0,0,0,1.107-.843,3.492,3.492,0,0,0,.735-1.125l2.372.657a6.008,6.008,0,0,1-1.108,1.654,7.337,7.337,0,0,1-1.623,1.294,8.3,8.3,0,0,1-2.045.858A8.717,8.717,0,0,1,234.808,34.608Zm5.589-9.552a5.894,5.894,0,0,0-.577-2.14,5.773,5.773,0,0,0-1.216-1.669,5.581,5.581,0,0,0-5.822-1.077,5.316,5.316,0,0,0-1.7,1.092,5.522,5.522,0,0,0-1.186,1.67,6.127,6.127,0,0,0-.546,2.123Z" transform="translate(-47.086 -11.508)"/>
          <path id="Path_10" data-name="Path 10" class="cls-1" d="M270.565,34.295h-2.747V25.18a6.829,6.829,0,0,0-.827-3.777,2.774,2.774,0,0,0-2.452-1.217,4.362,4.362,0,0,0-3.012,1.2,6.624,6.624,0,0,0-1.888,3.106v9.8h-2.747V25.18a6.908,6.908,0,0,0-.812-3.808,2.755,2.755,0,0,0-2.435-1.186,4.449,4.449,0,0,0-3,1.171,6.356,6.356,0,0,0-1.9,3.106v9.833H246V18h2.5v3.5a7.39,7.39,0,0,1,2.591-2.794,6.689,6.689,0,0,1,3.588-.983,4.628,4.628,0,0,1,3.262,1.108,4.8,4.8,0,0,1,1.484,2.855q2.184-3.963,6.212-3.963a4.9,4.9,0,0,1,2.355.515,3.937,3.937,0,0,1,1.514,1.436,6.657,6.657,0,0,1,.812,2.171,13.884,13.884,0,0,1,.25,2.716v9.737Z" transform="translate(-38.922 -11.508)"/>
          <text id="fastighetsöversikt" class="cls-2" transform="translate(42.642 38.946)"><tspan x="0" y="0">fastighetsöversikt</tspan></text>
        </g>
      </g>
    </g>
    <g id="HOUSE" transform="translate(90.311 -53.003)">
      <g id="baseline" transform="translate(0 47.083)">
        <rect id="Rectangle_23" data-name="Rectangle 23" class="cls-3" width="114.037" height="5.313"/>
      </g>
      <g id="pillar" transform="translate(47.913 11.209)">
        <rect id="Rectangle_24" data-name="Rectangle 24" class="cls-3" width="5.148" height="35.873"/>
      </g>
      <g id="pillar_copy" transform="translate(102.966 11.167)">
        <rect id="Rectangle_25" data-name="Rectangle 25" class="cls-3" width="5.148" height="37.684"/>
      </g>
      <g id="pillar_copy_2" transform="translate(75.995 0.006)">
        <rect id="Rectangle_26" data-name="Rectangle 26" class="cls-3" width="5.148" height="32.338" transform="translate(0 4.831) rotate(-69.787)"/>
      </g>
      <g id="pillar_copy_3" transform="translate(47.942 0)">
        <rect id="Rectangle_27" data-name="Rectangle 27" class="cls-3" width="5.148" height="31.869" transform="translate(1.804 15.989) rotate(-110.512)"/>
      </g>
    </g>
    <g id="WINDOWS" class="cls-4" transform="translate(169.944 -33.408)">
      <rect id="Rectangle_28" data-name="Rectangle 28" class="cls-5" width="6.643" height="6.228" transform="translate(11.957)"/>
      <rect id="Rectangle_29" data-name="Rectangle 29" class="cls-5" width="6.643" height="6.228" transform="translate(12.04 13.12)"/>
      <rect id="Rectangle_30" data-name="Rectangle 30" class="cls-5" width="6.643" height="6.228" transform="translate(0 13.12)"/>
    </g>
  </g>
</svg>
