<svg xmlns="http://www.w3.org/2000/svg" width="25.342" height="25.211" viewBox="0 0 25.342 25.211">
  <g id="log-out" transform="translate(-7.076 -6.5)">
    <path id="Path_121" data-name="Path 121" d="M48.962,35.7H36.3a.384.384,0,0,1-.384-.384V13.984A.384.384,0,0,1,36.3,13.6H48.962a.384.384,0,0,1,.384.384v8.473a.384.384,0,1,1-.767,0V14.367H36.684V34.93H48.579V26.841a.384.384,0,0,1,.767,0v8.473A.384.384,0,0,1,48.962,35.7Z" transform="translate(-22.518 -5.544)" fill="#798595"/>
    <path id="Path_122" data-name="Path 122" d="M15.8,31.711,7.076,27.832V10.378L15.8,6.5Z" fill="#f2839d"/>
    <path id="Path_123" data-name="Path 123" d="M11.71,71.969a.384.384,0,0,1-.384-.384V65.3a.384.384,0,0,1,.767,0v6.284A.384.384,0,0,1,11.71,71.969Z" transform="translate(-3.318 -45.611)" fill="#fff"/>
    <path id="Path_124" data-name="Path 124" d="M74.934,52.594l-2.742-2.743a.384.384,0,1,0-.543.543l2.088,2.088H62.058a.384.384,0,0,0,0,.767H73.737l-2.088,2.088a.384.384,0,0,0,.543.543l2.742-2.743A.383.383,0,0,0,74.934,52.594Z" transform="translate(-42.629 -33.76)" fill="#798595"/>
  </g>
</svg>
