<?xml version="1.0"?>
<svg xmlns="http://www.w3.org/2000/svg" xmlns:xlink="http://www.w3.org/1999/xlink" version="1.1" id="Capa_1" x="0px" y="0px" viewBox="0 0 496 496" style="enable-background:new 0 0 496 496;" xml:space="preserve" width="512px" height="512px" class=""><g><path style="fill:#ECECEC;" d="M256,32h-16c-70.696,0-128,57.304-128,128l0,0h272l0,0C384,89.304,326.696,32,256,32z" data-original="#ECECEC" class=""/><path style="fill:#B6C1CE;" d="M256,32h-16c-1.352,0-2.656,0.16-4,0.2c68.824,2.136,124,58.456,124,127.8l0,0h24l0,0  C384,89.304,326.696,32,256,32z" data-original="#B6C1CE"/><rect x="112" y="160" style="fill:#D3A06C;" width="272" height="56" data-original="#D3A06C"/><g>
	<rect x="200" y="304" style="fill:#FFFFFF" width="96" height="104" data-original="#F9E0A6" class="" data-old_color="#F9E0A6"/>
	<path style="fill:#FFFFFF" d="M144,248L144,248c-17.672,0-32-14.328-32-32l0,0c0-17.672,14.328-32,32-32l0,0h208l0,0   c17.672,0,32,14.328,32,32l0,0c0,17.672-14.328,32-32,32l0,0H144z" data-original="#F9E0A6" class="" data-old_color="#F9E0A6"/>
	<path style="fill:#FFFFFF" d="M144,160v72c0,57.44,46.56,104,104,104s104-46.56,104-104v-72H144z" data-original="#F9E0A6" class="" data-old_color="#F9E0A6"/>
</g><path style="fill:#D25774" d="M328,160v72c0,53.376-40.224,97.296-92,103.256c3.944,0.456,7.936,0.744,12,0.744  c57.44,0,104-46.56,104-104v-72H328z" data-original="#EABD8C" class="" data-old_color="#EABD8C"/><path style="fill:#FFB3B3" d="M304,160v-3.184c0-44.752-13.984-88.392-40-124.816l0,0h-32l0,0c-26.016,36.424-40,80.064-40,124.816  V160H304z" data-original="#FCD770" class="" data-old_color="#FCD770"/><path style="fill:#ECECEC;" d="M144,160c0,35.344,28.656,64,64,64h80c35.344,0,64-28.656,64-64H144z" data-original="#ECECEC" class=""/><path style="fill:#FFFFFF" d="M248,376c40,0,48-32,48-32l48.088,7.4c34.216,5.264,62.456,29.552,72.784,62.592L440,488H248H56  l23.128-74.008c10.328-33.048,38.56-57.328,72.784-62.592L200,344C200,344,208,376,248,376z" data-original="#AFB8C9" class="" data-old_color="#AFB8C9"/><path style="fill:#FFFFFF" d="M344.088,351.4L296,344c0,0-2.456,9.656-11.272,18.368l27.456,13.728  c30.104,15.048,51.36,43.392,57.376,76.504L376,488h64l-23.128-74.008C406.544,380.944,378.312,356.664,344.088,351.4z" data-original="#8C95A4" class="active-path" data-old_color="#8C95A4"/><path style="fill:#FFB3B3" d="M344,352l-0.192-0.648L296,344c0,0-8,32-48,32s-48-32-48-32l-39.616,6.096L160,352l-24,72l-8,64h120  h128l-8-64L344,352z" data-original="#FCD770" class="" data-old_color="#FCD770"/><path style="fill:#FF9494" d="M344,352l-0.192-0.648L296,344c0,0-2.456,9.656-11.272,18.368l27.456,13.728  c30.104,15.048,51.36,43.392,57.376,76.504L376,488l-8-64L344,352z" data-original="#FFC729" class="" data-old_color="#FFC729"/><polygon style="fill:#ECECEC;" points="224,432 192,432 192,400 168,416 168,448 184,464 184,488 232,488 232,464 248,448 248,416   224,400 " data-original="#ECECEC" class=""/><rect x="184" y="464" style="fill:#B6C1CE;" width="48" height="24" data-original="#B6C1CE"/><polygon style="fill:#ECECEC;" points="312,384 296,384 280,424 280,440 288,448 288,488 320,488 320,448 328,440 328,424 " data-original="#ECECEC" class=""/><rect x="288" y="464" style="fill:#B6C1CE;" width="32" height="24" data-original="#B6C1CE"/><path d="M424.504,411.608c-11.152-35.696-42.24-62.432-79.192-68.12L304,337.136v-8.288c26.92-15.624,46.784-42.072,53.488-73.4  C376.928,252.736,392,236.176,392,216v-64h-0.408C387.88,88.624,340.688,36.856,279.408,26.16C276.648,11.304,263.648,0,248,0  s-28.648,11.304-31.408,26.16C155.312,36.856,108.12,88.624,104.408,152H104v64c0,20.176,15.072,36.736,34.512,39.448  c6.704,31.328,26.568,57.776,53.488,73.4v8.288l-41.312,6.352c-36.952,5.688-68.048,32.424-79.192,68.12L45.12,496h405.76  L424.504,411.608z M409.24,416.376L429.12,480h-46.056l-7.128-56.992l-20.024-60.464C380.984,370.8,401.24,390.8,409.24,416.376z   M288,436.688v-11.152L301.416,392h5.168L320,425.536v11.152l-8,8V480h-16v-35.312L288,436.688z M317.416,376h-26.832L272,422.464  v20.848l8,8V480h-40v-12.688l16-16V411.72l-40-26.664V424h-16v-38.944l-40,26.664v39.592l16,16V480h-38.936l6.784-54.216  l22.848-68.56l28.072-4.32C201.056,366.336,217.184,384,248,384s46.944-17.664,53.232-31.104l36.504,5.616l22.416,67.264  L366.936,480H328v-28.688l8-8v-20.848L317.416,376z M176,444.688V420.28l8-5.336V440h48v-25.056l8,5.336v24.408l-16,16V480h-32  v-19.312L176,444.688z M288,342.832C286.624,347,278.216,368,248,368c-30.208,0-38.6-20.904-40-25.168v-6.344  c12.44,4.784,25.896,7.512,40,7.512s27.56-2.728,40-7.512V342.832z M136,176.808c-5.944,1.216-11.328,3.856-16,7.392V168h16V176.808  z M343.36,168c-3.904,27.088-27.208,48-55.36,48h-80c-28.152,0-51.456-20.912-55.36-48H343.36z M376,184.208  c-4.672-3.536-10.056-6.184-16-7.392V168h16V184.208z M359.664,238.632C359.792,236.424,360,234.24,360,232v-38.528  c9.288,3.312,16,12.112,16,22.528C376,226.536,369.128,235.416,359.664,238.632z M375.592,152H311.88  c-0.12-5.616-0.392-11.24-0.928-16.776l-15.92,1.544c0.488,5.024,0.736,10.128,0.848,15.224h-95.696  c0.92-40.176,13.296-78.624,35.992-111.808C237.456,40.152,238.712,40,240,40h16c1.312,0,2.576,0.152,3.872,0.2  c16.576,24.288,28.024,52.232,33.064,81.176l15.768-2.752c-4.656-26.784-14.44-52.76-28.408-76.144  C332.312,53.216,371.992,97.752,375.592,152z M248,16c6.016,0,11.208,3.376,13.936,8.304C259.952,24.216,258,24,256,24h-16  c-2,0-3.952,0.216-5.936,0.304C236.792,19.376,241.984,16,248,16z M215.584,42.512c-19.88,33.144-30.568,70.592-31.4,109.488H120.4  C124.008,97.792,163.632,53.296,215.584,42.512z M120,216c0-10.416,6.712-19.216,16-22.528V232c0,2.24,0.208,4.424,0.336,6.632  C126.872,235.416,120,226.536,120,216z M152,232v-26.84c13.208,16.344,33.392,26.84,56,26.84h80c22.608,0,42.792-10.496,56-26.84  V232c0,52.936-43.064,96-96,96S152,284.936,152,232z M86.76,416.376c8.904-28.48,33.024-49.968,62.048-56.08l-20.392,61.176  L120.952,480H66.88L86.76,416.376z" data-original="#000000" class="" style="fill:#D25774" data-old_color="#000000"/></g> </svg>
