<svg xmlns="http://www.w3.org/2000/svg" width="25.62" height="25.62" viewBox="0 0 25.62 25.62">
  <g id="options" transform="translate(0 0.001)">
    <path id="Path_138" data-name="Path 138" d="M393.151,43.652a1.6,1.6,0,1,1-1.6-1.6A1.6,1.6,0,0,1,393.151,43.652Zm0,0" transform="translate(-370.437 -39.947)" fill="#4a5665"/>
    <path id="Path_139" data-name="Path 139" d="M61.254,407.55a1.6,1.6,0,1,1-1.6-1.6A1.6,1.6,0,0,1,61.254,407.55Zm0,0" transform="translate(-55.147 -385.636)" fill="#4a5665"/>
    <path id="Path_140" data-name="Path 140" d="M99.836,91.038a7.375,7.375,0,0,0-1.017-2.454l.959-.959-2.213-2.211-.958.958a7.375,7.375,0,0,0-2.454-1.017V84H91.024v1.355a7.374,7.374,0,0,0-2.454,1.017l-.958-.958L85.4,87.626l.959.959a7.375,7.375,0,0,0-1.017,2.454H83.982l0,3.129h1.36a7.366,7.366,0,0,0,1.017,2.454l-.962.962L87.607,99.8l.963-.963a7.366,7.366,0,0,0,2.454,1.017v1.364h3.129V99.85a7.369,7.369,0,0,0,2.454-1.017l.963.963,1.416-1.417.8-.8-.962-.962a7.366,7.366,0,0,0,1.017-2.454h1.36V91.038Zm-7.247,5.2a3.634,3.634,0,1,1,3.634-3.634A3.634,3.634,0,0,1,92.588,96.241Zm0,0" transform="translate(-79.779 -79.798)" fill="#ff9494"/>
    <path id="Path_141" data-name="Path 141" d="M4.506,19.812A2.089,2.089,0,0,0,3.5,20.07,11.815,11.815,0,0,1,15.161,1.234a.5.5,0,0,0,.2-.981A12.905,12.905,0,0,0,12.81,0,12.81,12.81,0,0,0,2.756,20.748a2.1,2.1,0,1,0,1.749-.936Zm.778,2.88a1.1,1.1,0,1,1,.323-.778A1.093,1.093,0,0,1,5.284,22.692Zm0,0" fill="#f2839d"/>
    <path id="Path_142" data-name="Path 142" d="M210.465,35.318a2.1,2.1,0,1,0-.74.679,11.815,11.815,0,0,1-11.643,18.84.5.5,0,1,0-.2.981,12.914,12.914,0,0,0,2.526.249,12.81,12.81,0,0,0,10.053-20.749Zm-2.527-.387a1.1,1.1,0,1,1,.778.322A1.094,1.094,0,0,1,207.937,34.931Zm0,0" transform="translate(-187.602 -30.447)" fill="#f2839d"/>
    <path id="Path_143" data-name="Path 143" d="M81.027,91.714a.5.5,0,0,0,.5.5h3.129a.5.5,0,0,0,.5-.5v-.97a7.836,7.836,0,0,0,1.878-.778l.685.685a.5.5,0,0,0,.708,0l2.211-2.213a.5.5,0,0,0,0-.708l-.684-.684a7.836,7.836,0,0,0,.778-1.878H91.7a.5.5,0,0,0,.5-.5V81.538a.5.5,0,0,0-.5-.5h-.967a7.837,7.837,0,0,0-.778-1.878l.68-.68a.5.5,0,0,0,0-.708L88.422,75.56a.5.5,0,0,0-.708,0l-.679.68a7.836,7.836,0,0,0-1.878-.778V74.5a.5.5,0,0,0-.5-.5H81.528a.5.5,0,0,0-.5.5v.961a7.829,7.829,0,0,0-1.878.778l-.68-.68a.5.5,0,0,0-.708,0l-2.213,2.212a.5.5,0,0,0,0,.708l.68.68a7.835,7.835,0,0,0-.778,1.878h-.965a.5.5,0,0,0-.5.5l0,3.129a.5.5,0,0,0,.5.5h.966a7.836,7.836,0,0,0,.778,1.878l-.684.684a.5.5,0,0,0,0,.708l2.211,2.213a.5.5,0,0,0,.354.147h0a.5.5,0,0,0,.354-.147l.685-.685a7.842,7.842,0,0,0,1.878.778Zm-1.682-2.8a.5.5,0,0,0-.625.066l-.609.609-1.5-1.505.609-.609a.5.5,0,0,0,.066-.625,6.849,6.849,0,0,1-.948-2.288.5.5,0,0,0-.489-.4h-.859V82.038h.858a.5.5,0,0,0,.489-.4,6.85,6.85,0,0,1,.948-2.287.5.5,0,0,0-.066-.625l-.6-.6,1.505-1.5.6.6a.5.5,0,0,0,.625.066,6.846,6.846,0,0,1,2.287-.948.5.5,0,0,0,.4-.489V75h2.128v.854a.5.5,0,0,0,.4.489,6.852,6.852,0,0,1,2.287.948.5.5,0,0,0,.625-.066l.6-.6,1.505,1.5-.6.6a.5.5,0,0,0-.066.625,6.854,6.854,0,0,1,.948,2.287.5.5,0,0,0,.489.4h.86v2.128h-.86a.5.5,0,0,0-.489.4,6.848,6.848,0,0,1-.948,2.287.5.5,0,0,0,.066.625l.609.609-1.5,1.505-.609-.609a.5.5,0,0,0-.625-.066,6.854,6.854,0,0,1-2.287.948.5.5,0,0,0-.4.489v.863H82.028V90.35a.5.5,0,0,0-.4-.489A6.85,6.85,0,0,1,79.345,88.913Zm0,0" transform="translate(-70.282 -70.298)" fill="none"/>
    <path id="Path_144" data-name="Path 144" d="M181.641,177.506a4.135,4.135,0,1,0-4.135,4.135A4.139,4.139,0,0,0,181.641,177.506Zm-7.269,0a3.134,3.134,0,1,1,3.134,3.134A3.137,3.137,0,0,1,174.372,177.506Zm0,0" transform="translate(-164.696 -164.696)" fill="none"/>
    <path id="Path_145" data-name="Path 145" d="M338.578,18.81a.5.5,0,1,0-.354-.147A.5.5,0,0,0,338.578,18.81Zm0,0" transform="translate(-321.161 -16.918)"/>
    <path id="Path_146" data-name="Path 146" d="M154.859,474.359a.5.5,0,1,0,.354.147A.5.5,0,0,0,154.859,474.359Zm0,0" transform="translate(-146.635 -450.623)"/>
  </g>
</svg>
