<svg xmlns="http://www.w3.org/2000/svg" width="23.173" height="23.373" viewBox="0 0 23.173 23.373">
  <g id="reports" transform="translate(-2.192 0)">
    <g id="Group_13" data-name="Group 13" transform="translate(2.192 0)">
      <path id="Path_86" data-name="Path 86" d="M17.238,21.863V4.326a1.578,1.578,0,0,1-1.467-1.574V.117A1.19,1.19,0,0,0,15.257,0H3.763A1.571,1.571,0,0,0,2.192,1.571V21.8a1.571,1.571,0,0,0,1.571,1.571H16.118a1.578,1.578,0,0,0,1.12-1.51Z" transform="translate(-2.192 0)" fill="#f6f9f9"/>
      <path id="Path_87" data-name="Path 87" d="M301.026,94.584h-2.679v17.485a1.571,1.571,0,0,1-1.571,1.571h2.89a1.571,1.571,0,0,0,1.571-1.571V95.109a1.189,1.189,0,0,0-.107-.493Z" transform="translate(-283.329 -90.266)" fill="#e7ecf1"/>
    </g>
    <g id="Group_14" data-name="Group 14" transform="translate(16.708 14.012)">
      <path id="Path_88" data-name="Path 88" d="M324.28,311.229a11.128,11.128,0,0,0-1.458-.345c-.445-.079-.863-.137-1.158-.174a.484.484,0,0,1-.424-.478l0-3.043-.586,0,.009,2.212a.484.484,0,0,1-.42.481s-.624,2.133,2.121,2.121a2.119,2.119,0,0,0,1.935-.773Z" transform="translate(-320.178 -307.178)" fill="#ffece3"/>
      <path id="Path_89" data-name="Path 89" d="M341.312,310.078a.484.484,0,0,0,.424.478,15.56,15.56,0,0,1,2.653.531,1.768,1.768,0,0,0,.237-1.464.484.484,0,0,1-.424-.478l-.009-2.212-2.887.012Z" transform="translate(-340.341 -306.932)" fill="#ffddce"/>
    </g>
    <g id="Group_49" data-name="Group 49" transform="translate(4.314 0.107)">
      <g id="Group_48" data-name="Group 48">
        <g id="Group_30" data-name="Group 30">
          <g id="Group_29" data-name="Group 29">
            <g id="Group_24" data-name="Group 24" transform="translate(11.436)">
              <g id="Group_23" data-name="Group 23">
                <g id="Group_22" data-name="Group 22">
                  <g id="Group_21" data-name="Group 21">
                    <g id="Group_20" data-name="Group 20">
                      <g id="Group_19" data-name="Group 19">
                        <g id="Group_18" data-name="Group 18">
                          <g id="Group_17" data-name="Group 17">
                            <g id="Group_16" data-name="Group 16">
                              <g id="Group_15" data-name="Group 15">
                                <path id="Path_90" data-name="Path 90" d="M303.186,6.243l-3.653-3.653a1.19,1.19,0,0,0-.349-.241V5.021a1.571,1.571,0,0,0,1.571,1.571h2.673A1.188,1.188,0,0,0,303.186,6.243Z" transform="translate(-299.184 -2.348)" fill="#f2839d"/>
                              </g>
                            </g>
                          </g>
                        </g>
                      </g>
                    </g>
                  </g>
                </g>
              </g>
            </g>
            <g id="Group_25" data-name="Group 25" transform="translate(0 7.888)">
              <path id="Path_91" data-name="Path 91" d="M57.722,175.836H49.034a.353.353,0,1,1,0-.705h8.688a.353.353,0,1,1,0,.705Z" transform="translate(-48.681 -175.131)" fill="#ff9494"/>
            </g>
            <g id="Group_26" data-name="Group 26" transform="translate(0 10.49)">
              <path id="Path_92" data-name="Path 92" d="M57.722,232.84H49.034a.353.353,0,1,1,0-.705h8.688a.353.353,0,1,1,0,.705Z" transform="translate(-48.681 -232.135)" fill="#ff9494"/>
            </g>
            <g id="Group_27" data-name="Group 27" transform="translate(0 13.092)">
              <path id="Path_93" data-name="Path 93" d="M57.722,289.843H49.034a.353.353,0,0,1,0-.705h8.688a.353.353,0,0,1,0,.705Z" transform="translate(-48.681 -289.138)" fill="#ff9494"/>
            </g>
            <g id="Group_28" data-name="Group 28" transform="translate(0 15.695)">
              <path id="Path_94" data-name="Path 94" d="M53.085,346.847H49.034a.353.353,0,0,1,0-.705h4.052a.353.353,0,1,1,0,.705Z" transform="translate(-48.681 -346.142)" fill="#ff9494"/>
            </g>
            <path id="Path_95" data-name="Path 95" d="M60.425,53.584H56.734a.327.327,0,0,0-.327.327v1.251a.327.327,0,0,0,.327.327h3.691a.327.327,0,0,0,.327-.327V53.911A.327.327,0,0,0,60.425,53.584Z" transform="translate(-56.054 -51.245)" fill="#ff9494"/>
          </g>
        </g>
        <g id="Group_47" data-name="Group 47" transform="translate(8.118 6.917)">
          <g id="Group_46" data-name="Group 46">
            <g id="Group_45" data-name="Group 45">
              <g id="Group_44" data-name="Group 44">
                <g id="Group_42" data-name="Group 42">
                  <g id="Group_41" data-name="Group 41">
                    <g id="Group_40" data-name="Group 40">
                      <g id="Group_39" data-name="Group 39">
                        <g id="Group_38" data-name="Group 38" transform="translate(0 0.183)">
                          <g id="Group_37" data-name="Group 37">
                            <g id="Group_36" data-name="Group 36">
                              <g id="Group_35" data-name="Group 35">
                                <g id="Group_34" data-name="Group 34">
                                  <g id="Group_33" data-name="Group 33">
                                    <path id="Path_96" data-name="Path 96" d="M289.157,165.4a2.827,2.827,0,0,0,.949-2.092l0-5.2a3.048,3.048,0,0,0-3.191.575,2.8,2.8,0,0,0-.938,2.128l0,.574v.24h-.2a.543.543,0,0,0-.54.545l0,.6a.543.543,0,0,0,.545.54h.205a2.79,2.79,0,0,0,.955,2.057,3.244,3.244,0,0,0,1.1.625.214.214,0,0,0,.143,0A3.316,3.316,0,0,0,289.157,165.4Z" transform="translate(-282.551 -157.894)" fill="#ffece3"/>
                                    <path id="Path_97" data-name="Path 97" d="M351.175,167.057l0-.6a.543.543,0,0,0-.545-.54h-.2v-.24l0-.574a2.8,2.8,0,0,0-.956-2.12,3.278,3.278,0,0,0-.95-.572l0,5.193a2.79,2.79,0,0,1-.937,2.065,3.282,3.282,0,0,1-1.1.639,3.046,3.046,0,0,0,3.016-.639,2.79,2.79,0,0,0,.937-2.065h.205A.543.543,0,0,0,351.175,167.057Z" transform="translate(-340.999 -162.204)" fill="#ffddce"/>
                                    <g id="Group_31" data-name="Group 31" transform="translate(0 9.511)">
                                      <path id="Path_98" data-name="Path 98" d="M236.625,369.861a2.353,2.353,0,0,0-1.405-2.144c-.1-.045-.217-.088-.34-.128a10.468,10.468,0,0,0-1.3-.316.349.349,0,0,0-.251.048l-.374.236-2.117-1.312a13.127,13.127,0,0,0-2.951.672,2.353,2.353,0,0,0-1.387,2.156l.011,2.685a1.147,1.147,0,0,0,1.152,1.142h.61l.138-.056h.417l.15.056h2.958l.28-.1h1.517l.286.1h2.608Z" transform="translate(-226.502 -366.245)" fill="#8c9ba6"/>
                                    </g>
                                    <g id="Group_32" data-name="Group 32" transform="translate(6.811 9.518)">
                                      <path id="Path_99" data-name="Path 99" d="M381.819,369.154a2.353,2.353,0,0,0-1.405-2.144,12.186,12.186,0,0,0-2.726-.617.636.636,0,0,0-.425.093l-1.555.982a8.8,8.8,0,0,1,1.816.476,2.353,2.353,0,0,1,1.405,2.144l0,2.947h1.754a1.186,1.186,0,0,0,1.142-1.2Z" transform="translate(-375.709 -366.388)" fill="#7c8b96"/>
                                    </g>
                                  </g>
                                </g>
                              </g>
                            </g>
                          </g>
                        </g>
                        <path id="Path_100" data-name="Path 100" d="M294.776,156.033h.166a2.443,2.443,0,0,0,.747-.129,1.386,1.386,0,0,1,.305-.063v-1.623s0-.231,0-.34l-2.333.01a.986.986,0,0,0-.926.658.365.365,0,0,1-.342.247.993.993,0,0,0-.989,1l.009,2.071s.872-.014,1.168.275a.1.1,0,0,0,.166-.07l-.006-1.362a.856.856,0,0,1,.852-.86h.01a1.384,1.384,0,0,1,.424.065A2.443,2.443,0,0,0,294.776,156.033Z" transform="translate(-288.441 -153.877)" fill="#aa8080"/>
                        <path id="Path_101" data-name="Path 101" d="M391.174,153.876h-.061v1.968a1.384,1.384,0,0,1,.155-.01h.01a.856.856,0,0,1,.86.852l0,1.172a.213.213,0,0,0,.189.211,1.064,1.064,0,0,0,.608-.11,1.259,1.259,0,0,1,.536-.129l-.007-1.679A2.285,2.285,0,0,0,391.174,153.876Z" transform="translate(-383.598 -153.876)" fill="#9d6b6b"/>
                      </g>
                      <path id="Path_102" data-name="Path 102" d="M303.561,367.175l1.218,1.037a.5.5,0,0,0,.616.024l.935-.679-2.117-1.312c-.117.016-.253.035-.4.057A.5.5,0,0,0,303.561,367.175Z" transform="translate(-299.875 -356.55)" fill="#7c8b96"/>
                      <path id="Path_103" data-name="Path 103" d="M370.66,366.78l-1.209,1.047a.5.5,0,0,1-.616.029l-.94-.671,2.106-1.33c.117.015.253.033.4.054A.5.5,0,0,1,370.66,366.78Z" transform="translate(-361.439 -356.178)" fill="#7c8b96"/>
                      <path id="Path_104" data-name="Path 104" d="M348.357,394.981l-.934.679.446,1.044.988,0,.441-1.048Z" transform="translate(-341.903 -383.974)" fill="#f2839d"/>
                    </g>
                    <path id="Path_105" data-name="Path 105" d="M347.669,436.257l-.565-3.623-.988,0-.53,3.619Z" transform="translate(-340.15 -419.908)" fill="#f2839d"/>
                  </g>
                </g>
                <g id="Group_43" data-name="Group 43" transform="translate(1.767 14.25)">
                  <path id="Path_106" data-name="Path 106" d="M265.905,466.372a.353.353,0,0,0-.353-.351h0a.353.353,0,0,0-.351.354l.007,1.745h.705Z" transform="translate(-265.2 -466.021)" fill="#7c8b96"/>
                </g>
              </g>
            </g>
          </g>
        </g>
      </g>
    </g>
  </g>
</svg>
